<svg width="416" height="128" viewBox="0 0 416 128" fill="none" xmlns="http://www.w3.org/2000/svg">
<path d="M2 110.133V89.3456H49.8101V4.81176C49.8101 4.81176 76.8313 -1.5147 92.0771 4.81176C101.725 8.81512 108.115 12.34 113.557 20.7485C127.009 41.5355 121.145 61.0217 104.549 74.1018C89.2479 86.162 54.6604 74.1018 54.6604 74.1018" stroke="black" stroke-width="2.7716" stroke-linecap="round"/>
<path d="M69.9043 78.2593L101.245 125.377L124.643 101.818" stroke="black" stroke-width="2.7716" stroke-linecap="round"/>
<path d="M197.398 81.7238C197.398 105.411 182.514 123.991 164.832 123.991C147.15 123.991 132.265 105.411 132.265 81.7238C132.265 58.0361 147.15 39.4568 164.832 39.4568C182.514 39.4568 197.398 58.0361 197.398 81.7238Z" stroke="black" stroke-width="2.7716"/>
<path d="M209.716 40.8427C209.716 40.8427 206.945 78.2593 209.716 96.2747C212.487 114.29 222.187 120.526 226.345 122.605C230.503 124.684 248.517 128.148 257.526 122.605C266.534 117.062 271.384 110.133 274.156 96.2747C276.927 82.4167 274.156 40.8427 274.156 40.8427" stroke="black" stroke-width="2.7716" stroke-linecap="round"/>
<path d="M286.397 2.04028C286.397 2.04028 285.704 101.125 286.397 105.282C287.09 109.44 295.405 117.062 298.176 119.14C300.948 121.219 307.087 124.78 313.42 124.684C319.5 124.591 323.058 122.724 327.971 119.14C333.436 115.154 335.944 111.6 338.365 105.282C339.846 101.417 340.324 99.0265 340.443 94.889" stroke="black" stroke-width="2.7716" stroke-linecap="round"/>
<path d="M288.168 42.2286H341.521" stroke="black" stroke-width="2.7716" stroke-linecap="round"/>
<path d="M413.997 97.3907C413.997 97.3907 409.979 109.789 404.296 115.406C399.212 120.432 395.393 123.131 388.36 124.414C381.921 125.588 377.782 124.827 371.73 122.335C367.219 120.478 364.831 118.81 361.336 115.406C355.612 109.831 353.817 105.078 351.636 97.3907C349.927 91.3692 349.928 81.454 349.928 81.454M349.928 81.454C349.928 81.454 349.721 77.2556 349.928 75.9108C351.636 64.8243 359.951 53.045 359.951 53.045C359.951 53.045 364.801 46.0023 371.73 44.0373C376.676 42.6347 383.323 41.6171 388.36 42.6515C395.236 44.064 399.121 46.2237 404.296 50.9663C407.761 54.141 410.806 58.6958 412.611 65.5172C414.134 71.2723 413.997 81.454 413.997 81.454H349.928Z" stroke="black" stroke-width="2.7716" stroke-linecap="round"/>
</svg>
